<svg xmlns="http://www.w3.org/2000/svg" xmlns:xlink="http://www.w3.org/1999/xlink" viewBox="0 0 197.62 200.98"><defs><style>.cls-1{isolation:isolate;}.cls-2{fill:#e2ac24;}.cls-3{fill:#9b7a32;}.cls-4{fill:url(#linear-gradient);}.cls-5{fill:#705a3f;opacity:0.23;mix-blend-mode:multiply;}.cls-6{fill:#b58a33;}.cls-7{fill:url(#linear-gradient-2);}.cls-8{fill:url(#linear-gradient-3);}</style><linearGradient id="linear-gradient" x1="72.11" y1="67.38" x2="72.11" y2="189.15" gradientUnits="userSpaceOnUse"><stop offset="0" stop-color="#834e00"/><stop offset="0.15" stop-color="#875303"/><stop offset="0.32" stop-color="#93610c"/><stop offset="0.51" stop-color="#a7781b"/><stop offset="0.7" stop-color="#c39830"/><stop offset="0.89" stop-color="#e7c14b"/><stop offset="1" stop-color="#fdda5c"/></linearGradient><linearGradient id="linear-gradient-2" x1="109.55" y1="80.15" x2="150.01" y2="191.29" gradientUnits="userSpaceOnUse"><stop offset="0" stop-color="#834e00"/><stop offset="0.32" stop-color="#c29226"/><stop offset="1" stop-color="#fdda5c"/></linearGradient><linearGradient id="linear-gradient-3" x1="66.94" y1="94.99" x2="140.27" y2="21.66" gradientUnits="userSpaceOnUse"><stop offset="0" stop-color="#c29226"/><stop offset="0.56" stop-color="#fdda5c"/><stop offset="1" stop-color="#fffea1"/></linearGradient></defs><title>pyrito</title><g class="cls-1"><g id="Layer_1" data-name="Layer 1"><path class="cls-2" d="M472.39,1039.79a113.45,113.45,0,0,0,12,5.06,100.55,100.55,0,0,0,12.4,3.45c1,.25,2.1.38,3.15.58l1.58.27,1.59.2c1.06.12,2.1.3,3.16.4l3.18.27a101.85,101.85,0,0,0,12.72,0,96.11,96.11,0,0,0,12.54-1.8,95.11,95.11,0,0,0,12.15-3.48,107.89,107.89,0,0,0,11.53-5.13,99.9,99.9,0,0,0,10.8-6.56,96.4,96.4,0,0,0,9.9-7.94,85.24,85.24,0,0,0,16-19.88,87.36,87.36,0,0,0,5.52-11.65,79,79,0,0,0,3.53-12.43,80.8,80.8,0,0,0,.86-25.71,90.45,90.45,0,0,0-2.61-12.57,95,95,0,0,0-4.44-12,101.15,101.15,0,0,0-6.07-11.17,97.38,97.38,0,0,0-7.5-10.18,86.32,86.32,0,0,0-18.87-16.58,95.8,95.8,0,0,0-11-6.07,97.08,97.08,0,0,0-11.73-4.44,89.56,89.56,0,0,0-24.71-3.83,99.62,99.62,0,0,0-12.55.7,93.6,93.6,0,0,0-12.36,2.49A96,96,0,0,0,481.23,886,99.76,99.76,0,0,0,470,891.82l-2.69,1.72c-.89.58-1.74,1.22-2.62,1.83l-1.31.92-1.27,1c-.83.66-1.71,1.28-2.51,2a96.54,96.54,0,0,0-9.33,8.88,109.77,109.77,0,0,0-8.14,10.14l-.6-.36A85.27,85.27,0,0,1,478.88,881,88.6,88.6,0,0,1,580,895.6a93.27,93.27,0,0,1,9.19,10,88.62,88.62,0,0,1,7.53,11.22A89.67,89.67,0,0,1,602.38,929a96,96,0,0,1,.37,65.27,105.61,105.61,0,0,1-5.12,12.25,107.07,107.07,0,0,1-6.72,11.52,95.42,95.42,0,0,1-8.35,10.5c-.74.85-1.56,1.62-2.35,2.42l-1.19,1.19-1.25,1.14c-.84.75-1.65,1.53-2.51,2.25s-1.75,1.43-2.63,2.13a89.2,89.2,0,0,1-11.32,7.41,88.07,88.07,0,0,1-12.4,5.43,102,102,0,0,1-13.08,3.48,97.66,97.66,0,0,1-13.43,1.38,83.5,83.5,0,0,1-50.37-15Z" transform="translate(-441.48 -854.44)"/><polygon class="cls-3" points="72.11 189.15 4.28 121.33 72.43 67.38 139.93 121.33 72.11 189.15"/><polygon class="cls-4" points="72.11 189.15 4.28 121.33 72.43 67.38 139.93 121.33 72.11 189.15"/><polygon class="cls-5" points="71.29 118.24 67.88 114.67 41.95 134.67 83.44 177.52 100.95 160 71.29 118.24"/><polygon class="cls-6" points="127.45 199.5 57.28 129.33 127.79 73.51 197.62 129.33 127.45 199.5"/><polygon class="cls-2" points="103.6 131.66 30.27 58.33 103.95 0 176.93 58.33 103.6 131.66"/><polygon class="cls-7" points="127.45 199.5 57.28 129.33 127.79 73.51 197.62 129.33 127.45 199.5"/><polygon class="cls-5" points="43.95 90 103.95 152 157.95 97 132.95 77.33 53.95 82.01 43.95 90"/><polygon class="cls-8" points="103.6 131.66 30.27 58.33 103.95 0 176.93 58.33 103.6 131.66"/></g></g></svg>